<svg preserveAspectRatio="none" overflow="visible" style="display: block;" width="29.9971" height="29.9971" viewBox="0 0 29.9971 29.9971" fill="none" xmlns="http://www.w3.org/2000/svg">
<g id="Group 1991426598">
<path id="Subtract" d="M28.9341 13.3034C29.1446 13.3185 29.3614 13.3461 29.5347 13.4666C29.8157 13.6621 29.9971 13.987 29.9971 14.3506V15.6465C29.9969 16.1961 29.5826 16.6578 29.0361 16.7168L18.4022 17.8608C18.2645 17.8756 18.1383 17.9417 18.0406 18.0397C17.9432 18.1374 17.8776 18.2632 17.8628 18.4004L16.7188 29.0361C16.6599 29.5827 16.1982 29.9969 15.6484 29.9971H14.3525C13.8027 29.997 13.3411 29.5828 13.2822 29.0361L12.1394 18.4257C12.1238 18.2811 12.0542 18.1486 11.9512 18.046C11.8484 17.9436 11.7162 17.8742 11.5719 17.8587L0.960938 16.7168C0.414329 16.658 0.00012225 16.1962 0 15.6465L0 14.3506C1.88422e-05 13.9875 0.180671 13.6629 0.460799 13.4674C0.63432 13.3462 0.851807 13.3185 1.06289 13.3034L14.8103 12.3172C14.936 12.3082 15.0621 12.3082 15.1877 12.3172L28.9341 13.3034ZM15.6484 0C16.1981 0.000120303 16.6598 0.414398 16.7188 0.960938L17.4153 7.44029C17.5517 8.709 16.4813 9.77936 15.2126 9.64306C15.0706 9.62781 14.9274 9.62781 14.7854 9.64307C13.5173 9.77936 12.4475 8.70931 12.5841 7.44119L13.2822 0.960938C13.3411 0.414348 13.8028 3.01509e-05 14.3525 0L15.6484 0Z" fill="url(#paint0_linear_0_20)"/>
</g>
<defs>
<linearGradient id="paint0_linear_0_20" x1="0" y1="14.9985" x2="29.9971" y2="14.9985" gradientUnits="userSpaceOnUse">
<stop/>
<stop offset="0.33" stop-color="#5057EA"/>
<stop offset="0.66" stop-color="#EF4646"/>
<stop offset="0.99" stop-color="#EDD758"/>
</linearGradient>
</defs>
</svg>
