<svg preserveAspectRatio="none" overflow="visible" style="display: block;" width="32" height="32" viewBox="0 0 32 32" fill="none" xmlns="http://www.w3.org/2000/svg">
<g id="Group 1991426894">
<path id="Ellipse 6916 (Stroke)" opacity="0.1" d="M30.2222 16C30.2222 8.14528 23.8547 1.77778 16 1.77778C8.14528 1.77778 1.77778 8.14528 1.77778 16C1.77778 23.8547 8.14528 30.2222 16 30.2222V32C7.16344 32 0 24.8366 0 16C0 7.16344 7.16344 0 16 0C24.8366 0 32 7.16344 32 16C32 24.8366 24.8366 32 16 32V30.2222C23.8547 30.2222 30.2222 23.8547 30.2222 16Z" fill="#10B981"/>
<g id="check_circle" clip-path="url(#clip0_0_47)">
<g id="Vector">
</g>
<path id="Vector_2" d="M15.9987 7.11127C11.092 7.11127 7.10981 11.0935 7.10981 16.0002C7.10981 20.9068 11.092 24.8891 15.9987 24.8891C20.9054 24.8891 24.8876 20.9068 24.8876 16.0002C24.8876 11.0935 20.9054 7.11127 15.9987 7.11127ZM13.5898 19.8135L10.3987 16.6224C10.052 16.2757 10.052 15.7157 10.3987 15.3691C10.7454 15.0224 11.3054 15.0224 11.652 15.3691L14.2209 17.9291L20.3365 11.8135C20.6831 11.4668 21.2431 11.4668 21.5898 11.8135C21.9365 12.1602 21.9365 12.7202 21.5898 13.0668L14.8431 19.8135C14.5054 20.1602 13.9365 20.1602 13.5898 19.8135Z" fill="#10B981"/>
</g>
</g>
<defs>
<clipPath id="clip0_0_47">
<rect width="21.3333" height="21.3333" fill="white" transform="translate(5.33203 5.3335)"/>
</clipPath>
</defs>
</svg>
